<?xml version="1.0" encoding="UTF-8" standalone="no"?>
<!-- Generator: Adobe Illustrator 19.0.0, SVG Export Plug-In . SVG Version: 6.00 Build 0)  -->

<svg
   xmlns:dc="http://purl.org/dc/elements/1.1/"
   xmlns:cc="http://creativecommons.org/ns#"
   xmlns:rdf="http://www.w3.org/1999/02/22-rdf-syntax-ns#"
   xmlns:svg="http://www.w3.org/2000/svg"
   xmlns="http://www.w3.org/2000/svg"
   xmlns:sodipodi="http://sodipodi.sourceforge.net/DTD/sodipodi-0.dtd"
   xmlns:inkscape="http://www.inkscape.org/namespaces/inkscape"
   version="1.1"
   id="Layer_1"
   x="0px"
   y="0px"
   viewBox="0 0 127.782 127.782"
   style="enable-background:new 0 0 127.782 127.782;"
   xml:space="preserve"
   sodipodi:docname="pikachu.svg"
   inkscape:version="0.92.1 r15371"><metadata
     id="metadata149"><rdf:RDF><cc:Work
         rdf:about=""><dc:format>image/svg+xml</dc:format><dc:type
           rdf:resource="http://purl.org/dc/dcmitype/StillImage" /></cc:Work></rdf:RDF></metadata><defs
     id="defs147" /><sodipodi:namedview
     pagecolor="#ffffff"
     bordercolor="#666666"
     borderopacity="1"
     objecttolerance="10"
     gridtolerance="10"
     guidetolerance="10"
     inkscape:pageopacity="0"
     inkscape:pageshadow="2"
     inkscape:window-width="1366"
     inkscape:window-height="746"
     id="namedview145"
     showgrid="false"
     inkscape:zoom="1"
     inkscape:cx="-261.109"
     inkscape:cy="63.890999"
     inkscape:window-x="-8"
     inkscape:window-y="-8"
     inkscape:window-maximized="1"
     inkscape:current-layer="Layer_1" /><g
     id="g112"
     style="opacity:1"
     transform="matrix(0.35216182,0,0,0.3783802,-22.499955,-24.393092)"><g
       id="g14"><g
         id="g4"><polygon
           style="fill:#ffd400"
           points="86.864,26.183 73.827,26.183 90.685,5.927 64.69,5.927 50.365,31.066 62.005,31.066 46.735,62.091 "
           id="polygon2" /></g><g
         id="g8"><polygon
           style="fill:#ffb000"
           points="46.735,62.091 77.124,34.898 66.995,34.898 74.247,26.183 73.827,26.183 83.431,14.642 59.724,14.642 50.365,31.066 62.005,31.066 "
           id="polygon6" /></g><g
         id="g12"><path
           style="fill:#33363a"
           d="m 46.734,63.591 c -0.318,0 -0.638,-0.101 -0.906,-0.305 -0.572,-0.435 -0.757,-1.213 -0.439,-1.857 L 59.595,32.566 h -9.229 c -0.534,0 -1.028,-0.284 -1.297,-0.746 C 48.8,31.358 48.798,30.788 49.062,30.324 L 63.386,5.185 C 63.654,4.716 64.151,4.427 64.69,4.427 h 25.995 c 0.582,0 1.111,0.337 1.358,0.863 0.247,0.527 0.167,1.149 -0.205,1.597 L 77.027,24.683 h 9.837 c 0.622,0 1.18,0.384 1.401,0.965 0.221,0.581 0.063,1.238 -0.401,1.653 l -40.13,35.908 c -0.283,0.254 -0.641,0.382 -1,0.382 z m 6.212,-34.025 h 9.059 c 0.519,0 1,0.268 1.273,0.707 0.273,0.44 0.301,0.99 0.072,1.455 L 51.492,55.821 82.938,27.683 h -9.111 c -0.582,0 -1.111,-0.337 -1.358,-0.863 -0.247,-0.527 -0.167,-1.149 0.205,-1.597 L 87.484,7.427 H 65.562 Z"
           id="path10"
           inkscape:connector-curvature="0" /></g></g><g
       id="g36"><g
         id="g18"><path
           style="fill:#fff800"
           d="m 113.1,84.413 c 0,20.676 -22.032,37.441 -49.209,37.441 -27.178,0 -49.209,-16.766 -49.209,-37.441 0,-20.68 22.031,-45.459 49.209,-45.459 27.177,0 49.209,24.78 49.209,45.459 z"
           id="path16"
           inkscape:connector-curvature="0" /></g><g
         id="g22"><path
           style="fill:#ffd400"
           d="m 113.1,84.413 c 0,20.676 -22.032,37.441 -49.209,37.441 -27.178,0 -49.209,-16.766 -49.209,-37.441 0,-20.68 22.031,-34.928 49.209,-34.928 27.177,10e-4 49.209,14.249 49.209,34.928 z"
           id="path20"
           inkscape:connector-curvature="0" /></g><g
         id="g26"><path
           style="fill:#fff800"
           d="m 74.37,74.615 c 0,1.393 -4.691,1.643 -10.479,1.643 -5.788,0 -10.479,-0.25 -10.479,-1.643 0,-1.395 4.691,-5.037 10.479,-5.037 5.788,0 10.479,3.642 10.479,5.037 z"
           id="path24"
           inkscape:connector-curvature="0" /></g><g
         id="g30"><path
           style="fill:#ffb000"
           d="m 113.1,84.413 c 0,20.676 -22.032,37.441 -49.209,37.441 -27.178,0 -49.209,-16.766 -49.209,-37.441 0,-20.682 6.261,18.34 49.209,18.34 42.948,0 49.209,-39.021 49.209,-18.34 z"
           id="path28"
           inkscape:connector-curvature="0" /></g><g
         id="g34"><path
           style="fill:#33363a"
           d="m 63.891,123.355 c -27.961,0 -50.709,-17.469 -50.709,-38.941 0,-21.27 22.619,-46.959 50.709,-46.959 28.09,0 50.709,25.689 50.709,46.958 0,21.473 -22.748,38.942 -50.709,38.942 z m 0,-82.901 c -26.428,0 -47.709,24.048 -47.709,43.959 0,19.818 21.402,35.941 47.709,35.941 26.307,0 47.709,-16.122 47.709,-35.941 0,-19.911 -21.282,-43.959 -47.709,-43.959 z"
           id="path32"
           inkscape:connector-curvature="0" /></g></g><g
       id="g66"><g
         id="g50"><g
           id="g48"><g
             id="g40"><path
               style="fill:#ffd400"
               d="M 9.197,47.273 C 15.582,57.814 24.528,64.011 33.182,65.084 34.674,54.33 32.31,41.852 25.924,31.311 19.539,20.767 10.593,14.57 1.94,13.501 0.447,24.251 2.812,36.732 9.197,47.273 Z"
               id="path38"
               inkscape:connector-curvature="0" /></g><g
             id="g44"><path
               style="fill:#ffb000"
               d="m 1.94,13.501 c -1.492,10.75 0.872,23.23 7.258,33.771 6.385,10.541 15.331,16.738 23.985,17.811 z"
               id="path42"
               inkscape:connector-curvature="0" /></g><path
             style="fill:#33363a"
             d="M 34.587,51.296 C 33.546,43.962 30.994,36.782 27.208,30.532 20.791,19.938 11.648,13.188 2.123,12.012 c -0.816,-0.101 -1.557,0.47 -1.669,1.282 -1.611,11.602 1.108,24.27 7.46,34.755 4.339,7.166 9.961,12.622 16.259,15.778 0.216,0.108 0.444,0.159 0.671,0.159 0.55,0 1.079,-0.303 1.342,-0.828 0.371,-0.74 0.072,-1.642 -0.669,-2.013 C 19.726,58.242 14.527,53.176 10.481,46.494 8.62,43.423 7.096,40.154 5.914,36.781 c 6.1,-1 13.157,2.117 12.314,-12.987 2.338,2.362 4.503,5.137 6.414,8.292 3.579,5.906 5.99,12.694 6.975,19.631 0.117,0.82 0.879,1.385 1.696,1.274 0.82,-0.115 1.39,-0.874 1.274,-1.695 z"
             id="path46"
             inkscape:connector-curvature="0" /></g></g><g
         id="g64"><g
           id="g62"><g
             id="g54"><path
               style="fill:#ffd400"
               d="m 118.584,47.273 c -6.385,10.541 -15.331,16.738 -23.985,17.811 -1.492,-10.754 0.871,-23.232 7.258,-33.773 6.386,-10.543 15.332,-16.74 23.986,-17.808 1.491,10.748 -0.872,23.229 -7.259,33.77 z"
               id="path52"
               inkscape:connector-curvature="0" /></g><g
             id="g58"><path
               style="fill:#ffb000"
               d="m 125.843,13.501 c 1.491,10.75 -0.872,23.23 -7.259,33.771 -6.385,10.541 -15.331,16.738 -23.985,17.811 z"
               id="path56"
               inkscape:connector-curvature="0" /></g><path
             style="fill:#33363a"
             d="m 127.328,13.295 c -0.112,-0.813 -0.857,-1.382 -1.669,-1.282 -9.525,1.176 -18.669,7.926 -25.086,18.52 -3.787,6.253 -6.339,13.434 -7.378,20.764 -0.116,0.82 0.454,1.58 1.274,1.696 0.832,0.114 1.58,-0.455 1.696,-1.274 0.982,-6.934 3.395,-13.722 6.974,-19.631 1.911,-3.155 4.076,-5.93 6.414,-8.292 -0.844,15.104 6.214,11.987 12.315,12.987 -1.182,3.373 -2.706,6.642 -4.567,9.713 -4.048,6.684 -9.247,11.75 -15.036,14.651 -0.741,0.371 -1.04,1.272 -0.669,2.013 0.263,0.525 0.792,0.828 1.342,0.828 0.226,0 0.455,-0.051 0.671,-0.159 6.296,-3.155 11.918,-8.611 16.259,-15.778 6.351,-10.484 9.071,-23.152 7.46,-34.756 z"
             id="path60"
             inkscape:connector-curvature="0" /></g></g></g><g
       id="g84"><g
         id="g70"><circle
           style="fill:#ff1a1a"
           cx="32.889"
           cy="87.775002"
           r="7.013"
           id="circle68" /></g><g
         id="g74"><path
           style="fill:#d61d1d"
           d="m 39.902,87.775 c 0,3.871 -3.14,7.012 -7.013,7.012 -3.874,0 -7.014,-3.141 -7.014,-7.012"
           id="path72"
           inkscape:connector-curvature="0" /></g><g
         id="g78"><circle
           style="fill:#ff1a1a"
           cx="94.891998"
           cy="87.775002"
           r="7.0139999"
           id="circle76" /></g><g
         id="g82"><path
           style="fill:#d61d1d"
           d="m 101.905,87.775 c 0,3.871 -3.141,7.012 -7.014,7.012 -3.873,0 -7.014,-3.141 -7.014,-7.012"
           id="path80"
           inkscape:connector-curvature="0" /></g></g><path
       style="fill:#33363a"
       d="m 73.528,80.281 c -0.828,0 -1.5,0.672 -1.5,1.5 0,1.427 -1.162,2.588 -2.591,2.588 h -1.456 c -1.428,0 -2.59,-1.161 -2.59,-2.588 v -1.455 c 0,-0.073 -0.011,-0.143 -0.021,-0.213 l 3.11,-1.556 c 0.622,-0.312 0.949,-1.01 0.789,-1.687 -0.16,-0.677 -0.765,-1.155 -1.46,-1.155 h -7.837 c -0.695,0 -1.3,0.479 -1.46,1.155 -0.16,0.676 0.167,1.375 0.789,1.687 l 3.109,1.556 c -0.01,0.07 -0.021,0.14 -0.021,0.213 v 1.455 c 0,1.427 -1.161,2.588 -2.589,2.588 h -1.457 c -1.429,0 -2.591,-1.161 -2.591,-2.588 0,-0.828 -0.672,-1.5 -1.5,-1.5 -0.828,0 -1.5,0.672 -1.5,1.5 0,3.081 2.508,5.588 5.591,5.588 H 59.8 c 1.616,0 3.069,-0.693 4.09,-1.792 1.021,1.099 2.475,1.792 4.091,1.792 h 1.456 c 3.083,0 5.591,-2.507 5.591,-5.588 0,-0.828 -0.671,-1.5 -1.5,-1.5 z"
       id="path86"
       inkscape:connector-curvature="0" /><g
       id="g90"><path
         style="fill:#6d5c4d"
         d="m 47.729,70.144 c 0,4.449 -3.605,8.051 -8.053,8.051 -4.446,0 -8.051,-3.602 -8.051,-8.051 0,-4.447 3.604,-8.053 8.051,-8.053 4.447,0 8.053,3.606 8.053,8.053 z"
         id="path88"
         inkscape:connector-curvature="0" /></g><g
       id="g94"><circle
         style="fill:#ffffff"
         cx="35.672001"
         cy="67.527"
         r="3.2809999"
         id="circle92" /></g><path
       style="fill:#33363a"
       d="m 39.676,60.591 c -3.245,0 -6.113,1.63 -7.84,4.111 -0.105,0.143 -0.197,0.293 -0.286,0.447 -0.897,1.455 -1.425,3.163 -1.425,4.995 0,5.267 4.284,9.551 9.551,9.551 5.268,0 9.553,-4.284 9.553,-9.551 0,-5.268 -4.286,-9.553 -9.553,-9.553 z m 0,16.104 c -2.721,0 -5.058,-1.668 -6.047,-4.035 0.681,-0.018 1.511,-0.202 2.44,-0.394 0.356,-0.03 0.699,-0.097 1.029,-0.201 0.809,-0.145 1.675,-0.259 2.577,-0.259 2.413,0 4.573,0.814 6.049,0.854 -0.988,2.367 -3.326,4.035 -6.048,4.035 z"
       id="path96"
       inkscape:connector-curvature="0" /><circle
       style="fill:#ffffff"
       cx="35.672001"
       cy="67.527"
       r="1.779"
       id="circle98" /><g
       id="g102"><path
         style="fill:#6d5c4d"
         d="m 96.155,70.144 c 0,4.449 -3.604,8.051 -8.051,8.051 -4.447,0 -8.052,-3.602 -8.052,-8.051 0,-4.447 3.604,-8.053 8.052,-8.053 4.447,0 8.051,3.606 8.051,8.053 z"
         id="path100"
         inkscape:connector-curvature="0" /></g><g
       id="g106"><circle
         style="fill:#ffffff"
         cx="84.099998"
         cy="67.527"
         r="3.28"
         id="circle104" /></g><path
       style="fill:#33363a"
       d="m 88.105,60.591 c -3.243,0 -6.11,1.629 -7.837,4.108 -0.107,0.145 -0.201,0.298 -0.292,0.455 -0.896,1.454 -1.423,3.16 -1.423,4.99 0,5.267 4.285,9.551 9.552,9.551 5.267,0 9.551,-4.284 9.551,-9.551 -0.001,-5.268 -4.285,-9.553 -9.551,-9.553 z m 0,16.104 c -2.721,0 -5.059,-1.668 -6.048,-4.035 0.689,-0.019 1.527,-0.201 2.471,-0.397 0.335,-0.03 0.658,-0.093 0.97,-0.189 0.819,-0.148 1.693,-0.268 2.607,-0.268 2.413,0 4.571,0.814 6.047,0.854 -0.989,2.367 -3.326,4.035 -6.047,4.035 z"
       id="path108"
       inkscape:connector-curvature="0" /><circle
       style="fill:#ffffff"
       cx="84.100998"
       cy="67.527"
       r="1.779"
       id="circle110" /></g><g
     id="g114" /><g
     id="g116" /><g
     id="g118" /><g
     id="g120" /><g
     id="g122" /><g
     id="g124" /><g
     id="g126" /><g
     id="g128" /><g
     id="g130" /><g
     id="g132" /><g
     id="g134" /><g
     id="g136" /><g
     id="g138" /><g
     id="g140" /><g
     id="g142" /></svg>