<?xml version="1.0" encoding="UTF-8" standalone="no"?>
<!-- Generator: Adobe Illustrator 19.0.0, SVG Export Plug-In . SVG Version: 6.00 Build 0)  -->

<svg
   xmlns:dc="http://purl.org/dc/elements/1.1/"
   xmlns:cc="http://creativecommons.org/ns#"
   xmlns:rdf="http://www.w3.org/1999/02/22-rdf-syntax-ns#"
   xmlns:svg="http://www.w3.org/2000/svg"
   xmlns="http://www.w3.org/2000/svg"
   xmlns:sodipodi="http://sodipodi.sourceforge.net/DTD/sodipodi-0.dtd"
   xmlns:inkscape="http://www.inkscape.org/namespaces/inkscape"
   version="1.1"
   id="Layer_1"
   x="0px"
   y="0px"
   viewBox="0 0 127.645 127.645"
   style="enable-background:new 0 0 127.645 127.645;"
   xml:space="preserve"
   sodipodi:docname="zubat.svg"
   inkscape:version="0.92.1 r15371"><metadata
     id="metadata157"><rdf:RDF><cc:Work
         rdf:about=""><dc:format>image/svg+xml</dc:format><dc:type
           rdf:resource="http://purl.org/dc/dcmitype/StillImage" /></cc:Work></rdf:RDF></metadata><defs
     id="defs155" /><sodipodi:namedview
     pagecolor="#ffffff"
     bordercolor="#666666"
     borderopacity="1"
     objecttolerance="10"
     gridtolerance="10"
     guidetolerance="10"
     inkscape:pageopacity="0"
     inkscape:pageshadow="2"
     inkscape:window-width="1366"
     inkscape:window-height="746"
     id="namedview153"
     showgrid="false"
     showguides="false"
     inkscape:guide-bbox="true"
     inkscape:lockguides="false"
     inkscape:zoom="5.6568542"
     inkscape:cx="-55.070623"
     inkscape:cy="131.25287"
     inkscape:window-x="-8"
     inkscape:window-y="-8"
     inkscape:window-maximized="1"
     inkscape:current-layer="Layer_1"><sodipodi:guide
       position="-105.35891,134.88062"
       orientation="1,0"
       id="guide4634"
       inkscape:locked="false" /></sodipodi:namedview><g
     id="g120"
     transform="matrix(0.35253897,0,0,0.40680908,-22.500048,-26.318576)"
     style="opacity:1"><g
       id="g62"><g
         id="g30"><g
           id="g14"><g
             id="g4"><path
               style="fill:#3662ce"
               d="m 119.829,10.016 c 7.048,9.68 8.524,22.881 2.655,34.246 C 116.617,55.633 105.004,62.073 93.027,61.94 85.98,52.256 84.504,39.059 90.373,27.69 96.24,16.323 107.852,9.881 119.829,10.016 Z"
               id="path2"
               inkscape:connector-curvature="0" /></g><g
             id="g8"><path
               style="fill:#6892fc"
               d="M 93.027,61.94 C 85.98,52.256 84.504,39.059 90.373,27.69 96.24,16.323 107.852,9.881 119.829,10.016"
               id="path6"
               inkscape:connector-curvature="0" /></g><g
             id="g12"><path
               style="fill:#33363a"
               d="m 93.402,63.442 c -0.131,0 -0.261,-10e-4 -0.392,-0.002 C 92.536,63.435 92.093,63.206 91.814,62.823 84.14,52.278 83.078,38.552 89.04,27.002 95.002,15.453 106.804,8.385 119.846,8.517 c 0.474,0.006 0.917,0.234 1.196,0.617 7.676,10.543 8.739,24.268 2.775,35.817 -5.9,11.432 -17.528,18.491 -30.415,18.491 z m 25.652,-51.926 c -11.598,0.143 -22.026,6.551 -27.349,16.862 -5.323,10.312 -4.507,22.525 2.096,32.062 11.6,-0.145 22.029,-6.555 27.35,-16.865 5.325,-10.312 4.508,-22.525 -2.097,-32.059 z"
               id="path10"
               inkscape:connector-curvature="0" /></g></g><g
           id="g28"><g
             id="g18"><path
               style="fill:#efa3cc"
               d="m 114.677,22.133 c 4.336,5.957 5.246,14.082 1.633,21.078 -3.61,6.998 -10.758,10.965 -18.131,10.881 -4.336,-5.959 -5.246,-14.084 -1.633,-21.08 3.611,-6.998 10.758,-10.963 18.131,-10.879 z"
               id="path16"
               inkscape:connector-curvature="0" /></g><g
             id="g22"><path
               style="fill:#ce86af"
               d="m 98.179,54.092 c -4.336,-5.959 -5.246,-14.084 -1.633,-21.08 3.61,-6.998 10.758,-10.963 18.131,-10.879"
               id="path20"
               inkscape:connector-curvature="0" /></g><g
             id="g26"><path
               style="fill:#33363a"
               d="m 98.416,55.593 c -0.085,0 -0.169,0 -0.254,-0.001 -0.475,-0.006 -0.918,-0.234 -1.196,-0.617 -4.853,-6.669 -5.524,-15.349 -1.753,-22.651 3.769,-7.305 11.229,-11.798 19.48,-11.69 0.475,0.006 0.917,0.234 1.196,0.617 4.853,6.668 5.524,15.346 1.753,22.649 -3.729,7.23 -11.08,11.693 -19.226,11.693 z M 113.9,23.639 c -6.802,0.192 -12.892,3.995 -16.021,10.061 -3.132,6.063 -2.704,13.23 1.077,18.887 6.802,-0.192 12.891,-3.996 16.021,-10.063 3.132,-6.064 2.705,-13.231 -1.077,-18.885 z"
               id="path24"
               inkscape:connector-curvature="0" /></g></g></g><g
         id="g60"><g
           id="g44"><g
             id="g34"><path
               style="fill:#3662ce"
               d="M 7.816,10.016 C 0.769,19.696 -0.708,32.897 5.161,44.262 11.028,55.633 22.641,62.073 34.619,61.94 41.666,52.256 43.142,39.059 37.273,27.69 31.405,16.323 19.793,9.881 7.816,10.016 Z"
               id="path32"
               inkscape:connector-curvature="0" /></g><g
             id="g38"><path
               style="fill:#6892fc"
               d="M 34.619,61.94 C 41.666,52.256 43.142,39.059 37.273,27.69 31.405,16.323 19.793,9.881 7.816,10.016"
               id="path36"
               inkscape:connector-curvature="0" /></g><g
             id="g42"><path
               style="fill:#33363a"
               d="M 34.244,63.442 C 21.356,63.442 9.727,56.384 3.828,44.95 -2.135,33.401 -1.072,19.676 6.603,9.133 6.882,8.75 7.326,8.522 7.799,8.516 7.931,8.515 8.065,8.514 8.196,8.514 c 12.883,0 24.508,7.056 30.409,18.487 5.962,11.551 4.898,25.276 -2.774,35.821 -0.279,0.383 -0.723,0.612 -1.196,0.617 -0.131,0.002 -0.261,0.003 -0.391,0.003 z M 8.59,11.516 C 1.987,21.05 1.169,33.263 6.494,43.574 11.814,53.886 22.245,60.295 33.845,60.44 40.447,50.904 41.264,38.69 35.941,28.378 30.618,18.068 20.186,11.66 8.59,11.516 Z"
               id="path40"
               inkscape:connector-curvature="0" /></g></g><g
           id="g58"><g
             id="g48"><path
               style="fill:#efa3cc"
               d="M 12.968,22.133 C 8.63,28.09 7.722,36.215 11.335,43.211 14.944,50.209 22.093,54.176 29.464,54.092 33.802,48.133 34.71,40.008 31.099,33.012 27.488,26.014 20.34,22.049 12.968,22.133 Z"
               id="path46"
               inkscape:connector-curvature="0" /></g><g
             id="g52"><path
               style="fill:#ce86af"
               d="M 29.464,54.092 C 33.802,48.133 34.71,40.008 31.099,33.012 27.488,26.014 20.34,22.049 12.968,22.133"
               id="path50"
               inkscape:connector-curvature="0" /></g><g
             id="g56"><path
               style="fill:#33363a"
               d="m 29.227,55.593 c -8.146,0 -15.495,-4.463 -19.225,-11.694 -3.772,-7.304 -3.1,-15.983 1.753,-22.649 0.279,-0.383 0.723,-0.611 1.196,-0.617 8.2,-0.079 15.71,4.386 19.48,11.691 3.771,7.305 3.098,15.983 -1.755,22.65 -0.279,0.383 -0.723,0.611 -1.195,0.617 -0.084,0.002 -0.17,0.002 -0.254,0.002 z M 13.746,23.639 c -3.782,5.653 -4.21,12.819 -1.077,18.884 3.129,6.067 9.218,9.871 16.019,10.063 C 32.47,46.932 32.898,39.765 29.767,33.7 26.636,27.635 20.546,23.831 13.746,23.639 Z"
               id="path54"
               inkscape:connector-curvature="0" /></g></g></g></g><g
       id="g92"><g
         id="g86"><g
           id="g84"><g
             id="g82"><g
               id="g80"><g
                 id="g66"><path
                   style="fill:#6892fc"
                   d="m 113.032,80.19 c 0,20.676 -22.032,37.441 -49.209,37.441 -27.178,0 -49.209,-16.766 -49.209,-37.441 0,-20.68 22.031,-45.459 49.209,-45.459 27.177,0 49.209,24.779 49.209,45.459 z"
                   id="path64"
                   inkscape:connector-curvature="0" /></g><g
                 id="g70"><path
                   style="fill:#4f74e8"
                   d="m 113.032,80.19 c 0,20.676 -22.032,37.441 -49.209,37.441 -27.178,0 -49.209,-16.766 -49.209,-37.441 0,-20.68 22.031,-34.928 49.209,-34.928 27.177,0 49.209,14.248 49.209,34.928 z"
                   id="path68"
                   inkscape:connector-curvature="0" /></g><g
                 id="g74"><path
                   style="fill:#3662ce"
                   d="m 113.032,80.19 c 0,20.676 -22.032,37.441 -49.209,37.441 -27.178,0 -49.209,-16.766 -49.209,-37.441 0,-20.682 6.261,18.34 49.209,18.34 42.948,0 49.209,-39.022 49.209,-18.34 z"
                   id="path72"
                   inkscape:connector-curvature="0" /></g><g
                 id="g78"><path
                   style="fill:#33363a"
                   d="m 63.823,119.131 c -27.961,0 -50.709,-17.469 -50.709,-38.941 0,-21.27 22.619,-46.959 50.709,-46.959 28.09,0 50.709,25.689 50.709,46.959 0,21.472 -22.748,38.941 -50.709,38.941 z m 0,-82.9 c -26.428,0 -47.709,24.048 -47.709,43.959 0,19.818 21.402,35.941 47.709,35.941 26.307,0 47.709,-16.123 47.709,-35.941 0,-19.911 -21.282,-43.959 -47.709,-43.959 z"
                   id="path76"
                   inkscape:connector-curvature="0" /></g></g></g></g></g><g
         id="g90"><path
           style="fill:#6892fc"
           d="m 73.634,65.508 c 0,2.067 -4.393,0.906 -9.811,0.906 -5.418,0 -9.812,1.16 -9.812,-0.906 0,-2.064 4.393,-3.74 9.812,-3.74 5.419,0 9.811,1.676 9.811,3.74 z"
           id="path88"
           inkscape:connector-curvature="0" /></g></g><g
       id="g96"><path
         style="fill:#33363a"
         d="m 91.142,96.598 c 0,5.844 -4.738,10.582 -10.582,10.582 H 48.996 c -5.844,0 -10.582,-4.738 -10.582,-10.582 V 78.08 c 0,-5.844 4.738,-10.582 10.582,-10.582 H 80.56 c 5.844,0 10.582,4.738 10.582,10.582 z"
         id="path94"
         inkscape:connector-curvature="0" /></g><g
       id="g100"><path
         style="fill:#702252"
         d="m 48.996,86.164 c -5.818,0 -10.537,4.699 -10.578,10.508 0.041,5.809 4.76,10.508 10.578,10.508 H 80.56 c 5.818,0 10.537,-4.699 10.578,-10.508 C 91.097,90.863 86.378,86.164 80.56,86.164 Z"
         id="path98"
         inkscape:connector-curvature="0" /></g><g
       id="g104"><polyline
         style="fill:#ffffff"
         points="60.777,69.268 55.592,80.602 50.408,69.268   "
         id="polyline102" /></g><g
       id="g108"><polyline
         style="fill:#ffffff"
         points="79.148,69.268 73.963,80.602 68.779,69.268   "
         id="polyline106" /></g><g
       id="g112"><polyline
         style="fill:#ffffff"
         points="73.871,105.116 79.056,93.782 84.242,105.116   "
         id="polyline110" /></g><g
       id="g116"><polyline
         style="fill:#ffffff"
         points="45.314,105.116 50.5,93.782 55.685,105.116   "
         id="polyline114" /></g><path
       style="fill:#33363a"
       d="M 80.56,65.998 H 48.996 c -6.662,0 -12.082,5.42 -12.082,12.082 v 18.518 c 0,6.662 5.42,12.082 12.082,12.082 H 80.56 c 6.662,0 12.082,-5.42 12.082,-12.082 V 78.08 c 0,-6.662 -5.42,-12.082 -12.082,-12.082 z m -2.938,3 -3.658,7.998 -3.658,-7.998 z m -18.372,0 -3.658,7.998 -3.658,-7.998 z M 48.996,105.68 c -0.748,0 -1.47,-0.101 -2.166,-0.272 l 3.67,-8.021 3.794,8.293 z m 31.564,0 h -5.298 l 3.794,-8.293 3.67,8.021 c -0.696,0.171 -1.418,0.272 -2.166,0.272 z m 9.082,-9.082 c 0,3.194 -1.661,6.002 -4.161,7.622 L 80.42,93.158 c -0.244,-0.534 -0.777,-0.876 -1.364,-0.876 -0.587,0 -1.12,0.342 -1.364,0.876 l -5.186,11.334 c -0.179,0.391 -0.172,0.819 -0.021,1.188 H 57.071 c 0.151,-0.37 0.158,-0.797 -0.021,-1.188 L 51.864,93.158 C 51.62,92.624 51.087,92.282 50.5,92.282 c -0.587,0 -1.12,0.342 -1.364,0.876 l -5.061,11.062 c -2.5,-1.62 -4.161,-4.428 -4.161,-7.622 V 78.08 c 0,-4.987 4.041,-9.045 9.02,-9.079 -0.053,0.291 -0.022,0.601 0.11,0.89 l 5.185,11.334 c 0.244,0.533 0.777,0.876 1.364,0.876 0.587,0 1.12,-0.343 1.364,-0.876 l 5.185,-11.334 c 0.133,-0.291 0.163,-0.601 0.109,-0.894 h 5.055 c -0.054,0.292 -0.024,0.603 0.109,0.894 L 72.6,81.225 c 0.244,0.533 0.777,0.876 1.364,0.876 0.587,0 1.12,-0.343 1.364,-0.876 l 5.185,-11.334 c 0.133,-0.29 0.163,-0.599 0.11,-0.89 4.979,0.034 9.02,4.092 9.02,9.079 v 18.518 z"
       id="path118"
       inkscape:connector-curvature="0" /></g><g
     id="g122" /><g
     id="g124" /><g
     id="g126" /><g
     id="g128" /><g
     id="g130" /><g
     id="g132" /><g
     id="g134" /><g
     id="g136" /><g
     id="g138" /><g
     id="g140" /><g
     id="g142" /><g
     id="g144" /><g
     id="g146" /><g
     id="g148" /><g
     id="g150" /></svg>