<?xml version="1.0" encoding="UTF-8" standalone="no"?>
<svg
   xmlns:dc="http://purl.org/dc/elements/1.1/"
   xmlns:cc="http://creativecommons.org/ns#"
   xmlns:rdf="http://www.w3.org/1999/02/22-rdf-syntax-ns#"
   xmlns:svg="http://www.w3.org/2000/svg"
   xmlns="http://www.w3.org/2000/svg"
   xmlns:sodipodi="http://sodipodi.sourceforge.net/DTD/sodipodi-0.dtd"
   xmlns:inkscape="http://www.inkscape.org/namespaces/inkscape"
   version="1.0"
   width="400px"
   height="300px"
   viewBox="0 0 4000 3000"
   preserveAspectRatio="xMidYMid meet"
   id="svg136"
   sodipodi:docname="zubat_attack.svg"
   inkscape:version="0.92.1 r15371">
  <metadata
     id="metadata142">
    <rdf:RDF>
      <cc:Work
         rdf:about="">
        <dc:format>image/svg+xml</dc:format>
        <dc:type
           rdf:resource="http://purl.org/dc/dcmitype/StillImage" />
      </cc:Work>
    </rdf:RDF>
  </metadata>
  <defs
     id="defs140" />
  <sodipodi:namedview
     pagecolor="#ffffff"
     bordercolor="#666666"
     borderopacity="1"
     objecttolerance="10"
     gridtolerance="10"
     guidetolerance="10"
     inkscape:pageopacity="0"
     inkscape:pageshadow="2"
     inkscape:window-width="1366"
     inkscape:window-height="746"
     id="namedview138"
     showgrid="false"
     inkscape:zoom="5.6568542"
     inkscape:cx="27.512259"
     inkscape:cy="257.14452"
     inkscape:window-x="-8"
     inkscape:window-y="-8"
     inkscape:window-maximized="1"
     inkscape:current-layer="layer1" />
  <g
     id="g4651"
     transform="translate(-93.886065,-202.73205)">
    <g
       id="layer1"
       style="fill:#50479e;stroke:none"
       transform="translate(120.05583,172.81361)">
      <path
         id="path4627"
         d="m -223.62965,-90.51963 c 1.72149,-1.25536 12.26543,-1.96373 33.1382,-2.13755 42.82158,-0.35672 56.16291,-4.34616 66.70689,-20.25729 5.80995,-8.58055 6.02515,-12.92598 1.72147,-33.83271 -2.15183,-10.99637 9.0377,-15.27801 52.935115,-20.60794 83.49118,-10.00327 171.501195,9.12022 231.752565,50.65862 12.05027,8.12152 13.34136,10.12744 8.60734,13.1144 -2.36702,1.26076 -7.31626,0.99169 -20.01206,-1.53977 -24.53091,-4.60463 -72.086465,-4.20846 -96.617375,0.80488 -33.99897,6.95379 -72.94718,23.87722 -93.60479,40.95847 -10.75917,8.77696 -26.89792,26.28597 -31.41677,34.08005 -4.51885,8.10446 -8.60734,7.05263 -10.54399,-2.54933 -1.93664,-10.84294 -7.31624,-18.86489 -13.34137,-19.43528 -6.455505,-0.56667 -18.720965,7.75741 -23.239815,15.86174 -2.15183,3.58594 -4.30366,10.11938 -5.16441,14.31504 -1.50627,9.01011 -1.72146,9.01191 -24.96122,4.08615 -11.18957,-2.3889 -22.80946,-3.37799 -45.18861,-3.81202 -16.56904,-0.32738 -30.98638,-1.13806 -32.27744,-1.90294 -1.07596,-0.92186 1.07585,-3.57701 5.80989,-7.33951 10.32883,-7.53227 14.63255,-15.32467 14.63255,-26.02864 0,-9.6181 -6.45553,-20.57855 -15.92361,-26.85998 -6.24032,-4.29171 -6.67064,-4.90869 -3.01256,-7.57639 z"
         inkscape:connector-curvature="0"
         style="fill:#50479e;fill-opacity:1;stroke:#0000ff;stroke-width:0.18270594;stroke-miterlimit:4;stroke-dasharray:none;stroke-opacity:1" />
      <path
         id="path4629"
         d="m -223.62965,85.24297 c 1.50628,-0.3228 16.35394,-1.06701 32.92308,-1.5153 25.17649,-0.67512 32.92308,-1.5153 47.12511,-5.04648 9.46809,-2.25069 17.86026,-3.8719 18.93617,-3.41548 0.86073,0.45823 1.72147,3.08827 1.72147,6.03575 0,7.75651 7.96179,21.65191 15.27802,27.02052 12.910995,9.20025 21.948695,4.62619 26.252375,-13.24964 1.29111,-5.75057 3.44294,-10.26728 4.73404,-10.27803 1.50628,-0.0125 4.73403,3.6837 7.7466,8.00224 16.13876,25.15179 53.36548,50.5933 91.02258,62.37976 29.26495,9.21916 44.32778,11.42064 80.908975,11.1159 28.83459,-0.2402 35.50527,-0.76116 49.06182,-3.97669 12.26547,-2.89452 16.56913,-3.24063 18.93615,-1.86418 5.1644,3.05958 3.44293,5.40088 -12.48064,16.23752 -34.85972,23.55992 -80.908975,41.16299 -128.679685,49.16231 -24.10055,4.07903 -75.95976,5.44182 -101.13622,2.54894 -41.960755,-4.61462 -53.365485,-9.17352 -50.783285,-20.20928 5.1644,-22.69204 3.65812,-30.74626 -7.96179,-40.11241 -12.69584,-10.4431 -20.01201,-11.93345 -57.88434,-12.23849 -40.45447,-0.28352 -43.46702,-1.34434 -31.20159,-10.59919 10.11361,-7.5305 14.41733,-15.32287 14.41733,-26.02686 0,-9.92833 -5.59478,-19.81006 -15.06287,-26.24666 -7.10106,-4.74988 -7.9618,-6.60427 -3.8733,-7.72425 z"
         inkscape:connector-curvature="0"
         style="fill:#50479e;fill-opacity:1;stroke:#0000ff;stroke-width:0.18270594;stroke-opacity:1" />
      <path
         id="path4631"
         d="m -170.04901,-3.16218 c 3.01255,-3.74824 12.69585,-4.91483 28.18904,-3.02721 18.07541,2.17634 28.83458,5.80994 40.45449,13.31448 l 9.683255,6.27966 -6.45552,3.93203 -6.455475,3.7769 8.176945,1.0178 c 8.60734,1.16934 12.26547,4.24147 12.26547,10.44667 0,4.65391 -3.65813,7.01134 -12.48064,8.32588 -7.961775,1.15223 -8.822525,3.02098 -2.58221,5.29594 6.02515,2.27676 5.3796,5.22961 -2.582185,10.2601 -10.32881,6.13613 -23.02464,9.65476 -42.60627,11.83457 -15.06286,1.67678 -18.29063,1.54853 -22.80946,-0.58565 -5.59478,-2.5906 -6.45553,-5.99629 -3.01255,-12.23019 1.72139,-3.58232 3.22766,-4.06026 12.26542,-4.13555 l 10.11362,-0.0842 -6.67074,-4.90861 c -6.02511,-4.6037 -6.45543,-5.99629 -6.45543,-15.14898 0,-9.15269 0.43032,-10.55245 6.45543,-15.10141 l 6.67074,-5.17486 -8.82255,0.0735 c -4.73404,0.0395 -9.6832,-0.85013 -10.75915,-1.77195 -3.44298,-3.22907 -4.94925,-9.57688 -2.58223,-12.38887 z"
         inkscape:connector-curvature="0"
         style="fill:#50479e;fill-opacity:1;stroke:#0000ff;stroke-width:0.18270594;stroke-opacity:1" />
    </g>
  </g>
</svg>
